<?xml version="1.0" encoding="UTF-8" standalone="no"?>
<!-- Created with Inkscape (http://www.inkscape.org/) -->

<svg
   width="1024"
   height="1024"
   viewBox="0 0 1024 1024"
   version="1.1"
   id="svg1"
   xmlns="http://www.w3.org/2000/svg"
   xmlns:svg="http://www.w3.org/2000/svg">
  <defs
     id="defs1" />
  <g
     id="layer1">
    <g
       id="g39"
       transform="rotate(45,511.99999,511.99999)"
       style="display:none">
      <path
         style="fill:#fcc800;fill-opacity:1;stroke:none;stroke-width:16;stroke-dasharray:none;stroke-opacity:1"
         id="rect35"
         width="560"
         height="560"
         x="215.73943"
         y="246.90178"
         d="m 279.73943,246.90178 h 432 a 64,64 45 0 1 64,64 v 432 a 64,64 135 0 1 -64,64 h -432 a 64,64 45 0 1 -64,-64 v -432 a 64,64 135 0 1 64,-64 z"
         transform="rotate(135,506.95597,522.81856)" />
      <path
         d="m 512,300.57812 a 70,70 0 0 0 -49.49805,20.50391 70,70 0 0 0 0,98.99414 L 484.42578,442 h -113.69336 -0.1543 a 70,70 0 0 1 0.0762,0.006 70,70 0 0 0 -49.57227,20.49609 70,70 0 0 0 0,98.9961 A 70,70 0 0 0 370.61523,582 h 21.41016 79.94922 a 40,40 0 0 1 0.0254,1.42187 40,40 0 0 1 -2.74805,14.56836 70,70 0 0 0 -6.75,5.9336 70,70 0 0 0 -11.11718,14.48633 70,70 0 0 0 11.11718,84.50781 70,70 0 0 0 98.9961,0 70,70 0 0 0 11.11718,-84.50781 70,70 0 0 0 -11.11718,-14.48633 70,70 0 0 0 -6.75,-5.9336 A 40,40 0 0 1 552,583.42187 40,40 0 0 1 552.02539,582 h 79.94922 21.4375 0.0176 A 70,70 0 0 0 702.91797,561.49805 70,70 0 0 0 723.42187,512 a 70,70 0 0 0 -20.5039,-49.49805 70,70 0 0 0 -4.9082,-4.30273 70,70 0 0 1 4.87695,4.27148 L 682.41602,442 561.5293,321.11328 a 70,70 0 0 1 4.27148,4.87695 70,70 0 0 0 -4.30273,-4.9082 A 70,70 0 0 0 512,300.57812 Z"
         style="fill:#432004;fill-opacity:1;stroke-width:22.542"
         id="path42" />
    </g>
    <g
       id="g8"
       transform="matrix(0.6363961,0.6363961,-0.6363961,0.6363961,512.00002,-139.66959)"
       style="display:inline">
      <path
         style="fill:#fcc800;fill-opacity:1;stroke:none;stroke-width:16;stroke-dasharray:none;stroke-opacity:1"
         id="path7"
         width="560"
         height="560"
         x="215.73943"
         y="246.90178"
         d="m 279.73943,246.90178 h 432 a 64,64 45 0 1 64,64 v 432 a 64,64 135 0 1 -64,64 h -432 a 64,64 45 0 1 -64,-64 v -432 a 64,64 135 0 1 64,-64 z"
         transform="matrix(-1.2065711,1.2065711,-1.2065711,-1.2065711,1745.8893,549.5996)" />
      <path
         d="m 512.00017,152.72246 a 118.95441,118.95441 0 0 0 -84.11445,34.84329 118.95441,118.95441 0 0 0 0,168.22556 l 37.25621,37.25626 h -193.20466 -0.2622 a 118.95441,118.95441 0 0 1 0.12944,0.008 118.95441,118.95441 0 0 0 -84.24057,34.83002 118.95441,118.95441 0 0 0 0,168.22891 118.95441,118.95441 0 0 0 84.17413,34.83972 h 36.38334 135.8616 a 67.973952,67.973952 0 0 1 0.043,2.41626 67.973952,67.973952 0 0 1 -4.66991,24.75671 118.95441,118.95441 0 0 0 -11.4706,10.08326 118.95441,118.95441 0 0 0 -18.89195,24.61732 118.95441,118.95441 0 0 0 18.89195,143.60824 118.95441,118.95441 0 0 0 168.22892,0 118.95441,118.95441 0 0 0 18.89194,-143.60824 118.95441,118.95441 0 0 0 -18.89194,-24.61732 118.95441,118.95441 0 0 0 -11.47061,-10.08326 67.973952,67.973952 0 0 1 -4.66991,-24.75671 67.973952,67.973952 0 0 1 0.043,-2.41626 h 135.86161 36.42979 0.0298 a 118.95441,118.95441 0 0 0 84.09778,-34.83995 118.95441,118.95441 0 0 0 34.84329,-84.11446 118.95441,118.95441 0 0 0 -34.84329,-84.11445 118.95441,118.95441 0 0 0 -8.34074,-7.31186 118.95441,118.95441 0 0 1 8.28758,7.25873 L 801.59643,393.04757 596.16774,187.61886 a 118.95441,118.95441 0 0 1 7.25873,8.28764 118.95441,118.95441 0 0 0 -7.31187,-8.34075 118.95441,118.95441 0 0 0 -84.11443,-34.84329 z"
         style="display:inline;fill:#432004;fill-opacity:1;stroke-width:38.3067"
         id="path8" />
    </g>
  </g>
</svg>
